<svg width="106" height="123" viewBox="0 0 106 123" fill="none" xmlns="http://www.w3.org/2000/svg">
<path fill-rule="evenodd" clip-rule="evenodd" d="M11.17 37.16H94.65C95.3207 37.1332 95.9921 37.187 96.65 37.32C97.7374 37.5593 98.7355 38.0999 99.53 38.88C100.453 39.7654 101.034 40.9483 101.17 42.22C101.195 42.7008 101.175 43.183 101.11 43.66L94 117.31V117.44V117.72C93.953 118.024 93.8862 118.325 93.8 118.62V118.68C93.4229 119.842 92.6938 120.858 91.7138 121.587C90.7337 122.316 89.5512 122.723 88.33 122.75H17.32C16.8979 122.73 16.4791 122.666 16.07 122.56C15.668 122.44 15.2793 122.279 14.91 122.08C14.0383 121.579 13.3022 120.872 12.7654 120.022C12.2287 119.171 11.9076 118.203 11.83 117.2L4.83 43.71C4.75012 43.1605 4.73 42.6039 4.77 42.05C4.9099 40.7959 5.48698 39.6311 6.4 38.76C7.22729 37.9559 8.26889 37.4073 9.4 37.18C9.99079 37.0767 10.5905 37.0332 11.19 37.05L11.17 37.16ZM5.65 8.8H37.12V6C37.115 5.91007 37.115 5.81993 37.12 5.73C37.183 4.22283 37.8114 2.79468 38.88 1.73C40.0016 0.622772 41.5139 0.00134125 43.09 0L62.46 0H62.76C64.2987 0.0770318 65.7489 0.743021 66.81 1.86C67.8711 2.97698 68.4619 4.45934 68.46 6V8.8H100.46H100.85C101.983 8.89263 103.043 9.39243 103.836 10.2069C104.628 11.0214 105.099 12.0953 105.16 13.23C105.16 13.41 105.16 13.55 105.16 13.73V23.59C105.16 24.2769 104.887 24.9357 104.401 25.4214C103.916 25.9071 103.257 26.18 102.57 26.18H2.59C1.90825 26.18 1.25398 25.9113 0.769117 25.432C0.284251 24.9528 0.00789512 24.3017 -1.52737e-06 23.62V13.53C-0.0102941 13.4269 -0.0102941 13.3231 -1.52737e-06 13.22C0.0685096 12.167 0.487915 11.1673 1.19123 10.3806C1.89454 9.5939 2.8412 9.06557 3.88 8.88C4.46665 8.80303 5.0588 8.77627 5.65 8.8ZM47.75 61.5C47.8707 60.3255 48.4227 59.2376 49.2992 58.4466C50.1757 57.6556 51.3144 57.2177 52.495 57.2177C53.6756 57.2177 54.8143 57.6556 55.6908 58.4466C56.5673 59.2376 57.1193 60.3255 57.24 61.5V98.5C57.1193 99.6745 56.5673 100.762 55.6908 101.553C54.8143 102.344 53.6756 102.782 52.495 102.782C51.3144 102.782 50.1757 102.344 49.2992 101.553C48.4227 100.762 47.8707 99.6745 47.75 98.5V61.5ZM71.48 61.3C71.6111 60.1013 72.2097 59.0027 73.1458 58.2426C74.0819 57.4825 75.2799 57.1223 76.48 57.24C77.0695 57.2347 77.6543 57.3461 78.2006 57.5678C78.7469 57.7894 79.2439 58.1169 79.6631 58.5315C80.0823 58.946 80.4153 59.4394 80.6431 59.9832C80.8708 60.527 80.9887 61.1105 80.99 61.7L78.99 98.7C78.8614 99.8997 78.2635 101 77.3268 101.761C76.3901 102.521 75.1906 102.88 73.99 102.76C73.4005 102.765 72.8157 102.654 72.2694 102.432C71.7231 102.211 71.2261 101.883 70.8069 101.469C70.3877 101.054 70.0547 100.561 69.8269 100.017C69.5992 99.473 69.4813 98.8896 69.48 98.3L71.48 61.3ZM25 61.7C25 61.1109 25.1166 60.5277 25.3433 59.9839C25.5699 59.4402 25.902 58.9468 26.3204 58.5321C26.7388 58.1174 27.2352 57.7897 27.7809 57.5679C28.3267 57.3462 28.9109 57.2347 29.5 57.24C30.7001 57.1223 31.8981 57.4825 32.8342 58.2426C33.7703 59.0027 34.3689 60.1013 34.5 61.3L36.5 98.3C36.4987 98.8896 36.3808 99.473 36.1531 100.017C35.9254 100.561 35.5923 101.054 35.1731 101.469C34.7539 101.883 34.2569 102.211 33.7106 102.432C33.1643 102.654 32.5795 102.765 31.99 102.76C30.7894 102.88 29.5899 102.521 28.6532 101.761C27.7165 101 27.1186 99.8997 26.99 98.7L24.99 61.7H25Z" fill="#DDDDDD"/>
</svg>
