<svg width="106" height="123" fill="none" xmlns="http://www.w3.org/2000/svg"><path fill-rule="evenodd" clip-rule="evenodd" d="M11.17 37.16h83.48a8.4 8.4 0 012 .16 5.93 5.93 0 012.88 1.56 5.429 5.429 0 011.64 3.34c.025.48.005.963-.06 1.44L94 117.31v.41a7.052 7.052 0 01-.2.9v.06a5.889 5.889 0 01-5.47 4.07H17.32a6.143 6.143 0 01-1.25-.19 6.16 6.16 0 01-1.16-.48 6.179 6.179 0 01-3.08-4.88l-7-73.49a7.69 7.69 0 01-.06-1.66 5.37 5.37 0 011.63-3.29 6 6 0 013-1.58 8.939 8.939 0 011.79-.13l-.02.11zM5.65 8.8h31.47V6a2.432 2.432 0 010-.27 6 6 0 011.76-4A6 6 0 0143.09 0h19.67a6 6 0 015.7 6v2.8h32.39a4.701 4.701 0 014.31 4.43v10.36a2.59 2.59 0 01-2.59 2.59H2.59A2.59 2.59 0 010 23.62V13.53a1.56 1.56 0 010-.31 4.72 4.72 0 013.88-4.34 10.4 10.4 0 011.77-.08zm42.1 52.7a4.77 4.77 0 019.49 0v37a4.769 4.769 0 01-7.94 3.053 4.769 4.769 0 01-1.55-3.053v-37zm23.73-.2a4.58 4.58 0 015-4.06 4.469 4.469 0 014.51 4.46l-2 37a4.572 4.572 0 01-5 4.06 4.47 4.47 0 01-4.51-4.46l2-37zM25 61.7a4.46 4.46 0 014.5-4.46 4.58 4.58 0 015 4.06l2 37a4.472 4.472 0 01-4.51 4.46 4.572 4.572 0 01-5-4.06l-2-37H25z" fill="#DDD"/></svg>